<?xml version="1.0" standalone="no"?>
<!DOCTYPE svg PUBLIC "-//W3C//DTD SVG 20010904//EN"
 "http://www.w3.org/TR/2001/REC-SVG-20010904/DTD/svg10.dtd">
<svg version="1.0" xmlns="http://www.w3.org/2000/svg"
 width="450.000000pt" height="450.000000pt" viewBox="0 0 450.000000 450.000000"
 preserveAspectRatio="xMidYMid meet">

<g transform="translate(0.000000,450.000000) scale(0.100000,-0.100000)"
fill="#000000" stroke="none">
<path d="M2247 4223 c-4 -3 -7 -152 -7 -330 l0 -324 -32 -44 c-30 -41 -41 -47
-118 -71 -271 -84 -446 -263 -511 -524 -18 -71 -21 -104 -16 -201 l5 -117 -30
-22 c-51 -38 -58 -70 -58 -267 0 -200 7 -229 69 -270 31 -21 45 -23 177 -23
89 0 144 4 144 10 0 6 -57 10 -151 10 l-151 0 -34 34 -34 34 0 196 c0 208 6
243 49 266 27 14 26 15 46 -37 29 -79 87 -183 101 -183 15 0 124 39 124 45 0
2 -16 27 -35 57 -105 158 -114 397 -22 573 46 89 158 196 247 239 94 45 212
73 246 57 39 -17 84 -97 84 -149 0 -87 -97 -136 -155 -77 -14 13 -25 35 -25
49 0 26 41 66 67 66 27 0 9 35 -20 38 -20 2 -36 -5 -57 -27 -25 -24 -30 -38
-30 -75 0 -39 6 -52 34 -83 29 -32 39 -37 84 -37 57 -1 92 19 130 74 30 45 28
95 -6 164 -29 55 -29 56 -7 56 39 0 129 -31 195 -68 272 -149 371 -521 209
-785 -16 -27 -29 -52 -29 -56 0 -4 25 -19 56 -34 40 -20 60 -25 68 -18 20 17
84 160 103 231 12 45 17 99 17 175 -2 186 -63 338 -187 472 -101 108 -206 169
-378 217 -46 13 -61 23 -87 60 l-32 44 0 325 c0 287 -2 326 -16 331 -19 7 -19
7 -27 -1z"/>
<path d="M1928 2764 c-15 -8 -32 -23 -38 -34 -15 -28 6 -35 51 -16 37 16 70
12 104 -11 33 -22 57 -17 53 13 -6 53 -109 82 -170 48z"/>
<path d="M2472 2760 c-59 -36 -56 -75 3 -47 47 22 94 21 125 -3 30 -23 50 -26
50 -6 0 67 -105 100 -178 56z"/>
<path d="M2109 2504 c-19 -23 -2 -44 61 -76 72 -38 146 -38 218 -2 62 31 82
59 58 82 -14 14 -19 12 -58 -14 -37 -25 -53 -29 -109 -29 -55 0 -72 4 -105 28
-47 32 -48 32 -65 11z"/>
<path d="M3419 2365 c-47 -40 -58 -45 -86 -40 -20 4 -33 2 -33 -5 0 -5 46 -60
103 -122 l102 -112 3 37 c2 28 13 45 46 74 55 49 67 73 65 126 -2 24 0 48 4
54 12 19 -16 30 -84 32 -66 2 -67 1 -120 -44z m162 6 c22 -22 29 -39 29 -67 0
-32 -7 -45 -52 -87 -29 -29 -54 -62 -57 -79 -6 -28 -8 -27 -93 71 -49 54 -88
101 -88 104 0 2 11 2 25 -1 19 -3 36 6 76 42 43 38 58 46 91 46 30 0 46 -7 69
-29z m29 13 c0 -8 -4 -12 -10 -9 -5 3 -10 10 -10 16 0 5 5 9 10 9 6 0 10 -7
10 -16z"/>
<path d="M2862 2198 c-16 -16 -16 -130 0 -146 7 -7 39 -12 73 -12 34 0 66 5
73 12 7 7 12 39 12 73 0 34 -5 66 -12 73 -7 7 -39 12 -73 12 -34 0 -66 -5 -73
-12z m143 -73 l0 -70 -70 0 -70 0 -3 59 c-4 86 -3 87 75 84 l68 -3 0 -70z"/>
<path d="M3351 2199 c-1 -21 24 -43 41 -36 9 4 8 6 -3 6 -9 1 -21 11 -27 24
-8 16 -11 17 -11 6z"/>
<path d="M3636 1729 c-25 -19 -26 -25 -26 -108 0 -126 5 -131 129 -131 127 0
131 3 131 128 0 123 -8 132 -124 132 -69 0 -88 -4 -110 -21z m206 -16 c14 -13
18 -31 18 -92 0 -111 -9 -121 -111 -121 -117 0 -119 2 -119 113 0 59 4 97 12
105 19 19 177 16 200 -5z"/>
<path d="M1885 1485 c-37 -36 -34 -86 6 -119 29 -25 36 -26 150 -26 l119 0 -2
-372 -3 -373 -127 -3 c-123 -3 -128 -3 -148 -29 -37 -48 -22 -105 36 -129 28
-12 97 -14 354 -14 196 1 332 5 350 12 59 20 78 83 39 131 -20 26 -23 26 -152
29 l-132 3 -3 373 -2 372 124 0 c119 0 126 1 155 26 40 33 43 83 6 119 l-24
25 -361 0 -361 0 -24 -25z"/>
<path d="M1012 918 c-16 -16 -16 -130 0 -146 12 -12 114 -17 142 -6 9 3 16 11
16 16 0 6 -6 6 -14 -1 -9 -7 -40 -11 -78 -9 l-63 3 0 70 0 70 63 3 c42 2 69
-2 79 -10 14 -11 15 -11 11 2 -6 20 -137 27 -156 8z"/>
<path d="M1173 845 c0 -27 2 -38 4 -22 2 15 2 37 0 50 -2 12 -4 0 -4 -28z"/>
</g>
</svg>
