<svg width="30" height="35" viewBox="0 0 30 35" fill="none" xmlns="http://www.w3.org/2000/svg">
<mask id="mask0_7_97" style="mask-type:luminance" maskUnits="userSpaceOnUse" x="0" y="0" width="30" height="35">
<path d="M22.4101 12.2371L15.2586 8.18779L1.53454 0.205744C0.752791 -0.231231 0 0.0308936 0 0.963106V33.5032C0 34.1732 0.550114 34.4937 1.21605 34.0859L15.2586 25.9289L22.4101 21.7923L29.2432 17.8012C30.0539 17.3351 29.967 16.6942 29.2432 16.3446L22.4101 12.2371Z" fill="white"/>
</mask>
<g mask="url(#mask0_7_97)">
<path d="M-1 -0.883423V16.7121V34.3367L16.6617 16.7121L-1 -0.883423Z" fill="#F1F9FF"/>
<path d="M21.4101 11.9927L14.2875 7.85602L-1 -1V-0.883471L16.6617 16.712L21.4101 11.9927Z" fill="#F1F9FF"/>
<path d="M-1 34.3367V34.4532L14.2875 25.5972L21.4101 21.4605L16.6617 16.712L-1 34.3367Z" fill="#F1F9FF"/>
<path d="M21.4101 11.9927L16.6617 16.712L21.4101 21.4605L29.5461 16.712L21.4101 11.9927Z" fill="#F1F9FF"/>
</g>
</svg>
